<svg id="OFF" xmlns="http://www.w3.org/2000/svg" viewBox="0 0 64 64"><path d="M59.55,34H4.45a4.06,4.06,0,0,1-4-4V11.39A4.06,4.06,0,0,1,4.45,7.34h55.1a4.06,4.06,0,0,1,4.05,4.05V29.92A4.06,4.06,0,0,1,59.55,34ZM4.45,8.54A2.86,2.86,0,0,0,1.6,11.39V29.92a2.86,2.86,0,0,0,2.85,2.85h55.1a2.86,2.86,0,0,0,2.85-2.85V11.39a2.86,2.86,0,0,0-2.85-2.85Z" fill="#959595"/><path d="M56.72,34H7.28a.6.6,0,0,1-.6-.6V31A3.42,3.42,0,0,1,10.1,27.6H53.9A3.42,3.42,0,0,1,57.32,31v2.35A.6.6,0,0,1,56.72,34ZM7.88,32.77H56.12V31A2.22,2.22,0,0,0,53.9,28.8H10.1A2.23,2.23,0,0,0,7.88,31Z" fill="#959595"/><path d="M52.5,23.59h-41a.6.6,0,1,1,0-1.19h41a.6.6,0,1,1,0,1.19Z" fill="#959595"/><path d="M58.62,12.79h-.9a.6.6,0,0,1,0-1.2h.9a.6.6,0,1,1,0,1.2Z" fill="#959595"/><path d="M53.64,12.79h-.89a.6.6,0,0,1,0-1.2h.89a.6.6,0,1,1,0,1.2Z" fill="#959595"/></svg>