<svg id="OFF" xmlns="http://www.w3.org/2000/svg" viewBox="0 0 64 64"><path d="M15,63.6H5.22a.6.6,0,0,1-.6-.6V1a.6.6,0,0,1,.6-.6H15a.6.6,0,0,1,.6.6V22.42a.6.6,0,0,1-1.2,0V1.6H5.82V62.4h8.54V41.92a.6.6,0,1,1,1.2,0V63A.6.6,0,0,1,15,63.6Z" fill="#959595"/><path d="M15,42.52A10.35,10.35,0,1,1,25.32,32.18,10.35,10.35,0,0,1,15,42.52ZM15,23a9.15,9.15,0,1,0,9.16,9.16A9.16,9.16,0,0,0,15,23Z" fill="#959595"/><path d="M15,36.63a4.46,4.46,0,1,1,4.46-4.46A4.46,4.46,0,0,1,15,36.63Zm0-7.72a3.26,3.26,0,1,0,3.26,3.26A3.26,3.26,0,0,0,15,28.91Z" fill="#959595"/><path d="M46,63.6a.59.59,0,0,1-.42-.18.58.58,0,0,1,0-.84,43.3,43.3,0,0,0,0-61.16.58.58,0,0,1,0-.84.59.59,0,0,1,.85,0,44.49,44.49,0,0,1,0,62.84A.6.6,0,0,1,46,63.6Z" fill="#1bbc9d"/><path d="M39.68,57.32a.59.59,0,0,1-.42-.18.58.58,0,0,1,0-.84,34.4,34.4,0,0,0,0-48.6.58.58,0,0,1,0-.84.59.59,0,0,1,.85,0,35.59,35.59,0,0,1,0,50.28A.6.6,0,0,1,39.68,57.32Z" fill="#1bbc9d"/><path d="M33.4,51a.63.63,0,0,1-.42-.17A.59.59,0,0,1,33,50a25.52,25.52,0,0,0,0-36,.58.58,0,0,1,0-.84.59.59,0,0,1,.85,0,26.71,26.71,0,0,1,0,37.73A.63.63,0,0,1,33.4,51Z" fill="#1bbc9d"/><path d="M27.12,44.76a.63.63,0,0,1-.42-.17.61.61,0,0,1,0-.85,16.63,16.63,0,0,0,0-23.48.6.6,0,0,1,.85-.84,17.83,17.83,0,0,1,0,25.17A.63.63,0,0,1,27.12,44.76Z" fill="#1bbc9d"/></svg>