<svg id="OFF" xmlns="http://www.w3.org/2000/svg" viewBox="0 0 64 64"><path d="M32,63.6A31.6,31.6,0,1,1,63.6,32,31.64,31.64,0,0,1,32,63.6Zm0-62A30.4,30.4,0,1,0,62.4,32,30.44,30.44,0,0,0,32,1.6Z" fill="#959595"/><path d="M32,57.85A25.85,25.85,0,1,1,57.85,32,25.88,25.88,0,0,1,32,57.85Zm0-50.5A24.65,24.65,0,1,0,56.65,32,24.68,24.68,0,0,0,32,7.35Z" fill="#959595"/><path d="M24.23,44.42a.6.6,0,0,1-.6-.6V20.18a.6.6,0,0,1,.6-.6.6.6,0,0,1,.6.6V43.82A.6.6,0,0,1,24.23,44.42Z" fill="#1bbc9d"/><path d="M39.77,44.42a.6.6,0,0,1-.6-.6V20.18a.6.6,0,0,1,1.2,0V43.82A.6.6,0,0,1,39.77,44.42Z" fill="#1bbc9d"/></svg>