<svg id="OFF" xmlns="http://www.w3.org/2000/svg" viewBox="0 0 64 64">
    <path
        d="M32,40.72A8.72,8.72,0,1,1,40.72,32,8.73,8.73,0,0,1,32,40.72Zm0-16.24A7.52,7.52,0,1,0,39.52,32,7.52,7.52,0,0,0,32,24.48Z"
        fill="#1bbc9d" />
    <path
        d="M9.56,35.61A3.62,3.62,0,1,1,13.18,32,3.61,3.61,0,0,1,9.56,35.61Zm0-6A2.42,2.42,0,1,0,12,32,2.42,2.42,0,0,0,9.56,29.58Z"
        fill="#1bbc9d" />
    <path
        d="M54.44,35.61A3.62,3.62,0,1,1,58.05,32,3.62,3.62,0,0,1,54.44,35.61Zm0-6A2.42,2.42,0,1,0,56.85,32,2.42,2.42,0,0,0,54.44,29.58Z"
        fill="#1bbc9d" />
    <path
        d="M32,52.45A20.47,20.47,0,0,1,15.45,44H5.3A4.91,4.91,0,0,1,.4,39.1V24.9A4.92,4.92,0,0,1,5.3,20H15.45a20.46,20.46,0,0,1,33.1,0H58.7a4.92,4.92,0,0,1,4.9,4.92V39.1A4.91,4.91,0,0,1,58.7,44H48.55A20.49,20.49,0,0,1,32,52.45ZM5.3,21.18A3.72,3.72,0,0,0,1.6,24.9V39.1a3.71,3.71,0,0,0,3.7,3.71H15.76a.59.59,0,0,1,.49.26,19.25,19.25,0,0,0,31.5,0,.59.59,0,0,1,.49-.26H58.7a3.71,3.71,0,0,0,3.7-3.71V24.9a3.72,3.72,0,0,0-3.7-3.72H48.24a.58.58,0,0,1-.49-.25,19.25,19.25,0,0,0-31.5,0,.58.58,0,0,1-.49.25Z"
        fill="#959595" />
    <path
        d="M40,34.11a.63.63,0,0,1-.43-.17l-9.48-9.49a.59.59,0,0,1,0-.85.61.61,0,0,1,.85,0l9.48,9.49a.59.59,0,0,1,0,.85A.63.63,0,0,1,40,34.11Z"
        fill="#1bbc9d" />
    <path
        d="M37.74,38.34a.61.61,0,0,1-.49-.25L25.83,26.68a.61.61,0,0,1,0-.85.59.59,0,0,1,.85,0L38.17,37.31a.59.59,0,0,1,.17.42A.61.61,0,0,1,37.74,38.34Z"
        fill="#1bbc9d" />
    <path
        d="M33.52,40.57a.6.6,0,0,1-.43-.17l-9.48-9.49a.6.6,0,0,1,.85-.85l9.48,9.49a.59.59,0,0,1,0,.85A.57.57,0,0,1,33.52,40.57Z"
        fill="#1bbc9d" />
    <path
        d="M29.92,30.52a.63.63,0,0,1-.44-.19.6.6,0,0,1,0-.85l3.34-3.11a.6.6,0,1,1,.82.87l-3.34,3.12A.59.59,0,0,1,29.92,30.52Z"
        fill="#1bbc9d" />
    <path
        d="M30.62,37.68a.57.57,0,0,1-.43-.19.6.6,0,0,1,0-.85l3.32-3.14a.59.59,0,0,1,.84,0,.6.6,0,0,1,0,.85L31,37.52A.61.61,0,0,1,30.62,37.68Z"
        fill="#1bbc9d" />
</svg>