<svg id="OFF" xmlns="http://www.w3.org/2000/svg" viewBox="0 0 64 64"><path d="M62.4,49.74a2,2,0,0,1-2,2H3.62a2,2,0,0,1-2-2V9.33a2,2,0,0,1,2-2H60.38a2,2,0,0,1,2,2Zm-2-43.63H3.62A3.22,3.22,0,0,0,.4,9.33V49.74A3.22,3.22,0,0,0,3.62,53H60.38a3.22,3.22,0,0,0,3.22-3.22V9.33A3.22,3.22,0,0,0,60.38,6.11Z" fill="#959595"/><path d="M58.72,10.39H5.28a.6.6,0,0,0-.6.6V44.86a.6.6,0,0,0,.6.6H58.72a.6.6,0,0,0,.6-.6V11A.6.6,0,0,0,58.72,10.39Zm-.6,33.87H5.88V11.59H58.12Z" fill="#959595"/><path d="M58.29,48h-.58a.6.6,0,1,0,0,1.2h.58a.6.6,0,1,0,0-1.2Z" fill="#959595"/><path d="M27,35.33a1.49,1.49,0,0,0,.76.2,1.43,1.43,0,0,0,.75-.2l10.7-6.09a1.48,1.48,0,0,0,.76-1.31,1.5,1.5,0,0,0-.76-1.32l-10.7-6.09a1.51,1.51,0,0,0-2.26,1.31V34A1.51,1.51,0,0,0,27,35.33Zm.45-13.5a.31.31,0,0,1,.16-.27.35.35,0,0,1,.16,0,.34.34,0,0,1,.15,0l10.69,6.09a.31.31,0,0,1,.16.28.3.3,0,0,1-.16.27L27.88,34.29a.3.3,0,0,1-.31,0,.31.31,0,0,1-.16-.27Z" fill="#959595"/><path d="M32,58.13a.6.6,0,0,1-.6-.6V52.36a.6.6,0,0,1,1.2,0v5.17A.6.6,0,0,1,32,58.13Z" fill="#959595"/><path d="M42,58.13H22a.6.6,0,1,1,0-1.2H42a.6.6,0,1,1,0,1.2Z" fill="#959595"/></svg>