<svg id="OFF" xmlns="http://www.w3.org/2000/svg" viewBox="0 0 64 64"><path d="M32,63.6A31.6,31.6,0,1,1,63.6,32,31.64,31.64,0,0,1,32,63.6Zm0-62A30.4,30.4,0,1,0,62.4,32,30.44,30.44,0,0,0,32,1.6Z" fill="#959595"/><path d="M32,57.85A25.85,25.85,0,1,1,57.85,32,25.88,25.88,0,0,1,32,57.85Zm0-50.5A24.65,24.65,0,1,0,56.65,32,24.68,24.68,0,0,0,32,7.35Z" fill="#959595"/><path d="M22.63,42.74a2.07,2.07,0,0,1-1-.27,2,2,0,0,1-1-1.74V23.27a2,2,0,0,1,3-1.74L39,30.25a2,2,0,0,1,0,3.5L23.63,42.47A2,2,0,0,1,22.63,42.74Zm0-20.28a.82.82,0,0,0-.81.81V40.73a.8.8,0,0,0,.41.7.77.77,0,0,0,.8,0L38.36,32.7a.81.81,0,0,0,0-1.4L23,22.57A.83.83,0,0,0,22.63,22.46Z" fill="#1bbc9d"/><path d="M42.78,42a.6.6,0,0,1-.6-.6V22.57a.6.6,0,1,1,1.2,0V41.44A.6.6,0,0,1,42.78,42Z" fill="#1bbc9d"/></svg>