<svg id="OFF" xmlns="http://www.w3.org/2000/svg" viewBox="0 0 64 64"><path d="M55.57,63.6H8.43a8,8,0,0,1-8-8V8.43a8,8,0,0,1,8-8H55.57a8,8,0,0,1,8,8V55.57A8,8,0,0,1,55.57,63.6ZM8.43,1.6A6.85,6.85,0,0,0,1.6,8.43V55.57A6.85,6.85,0,0,0,8.43,62.4H55.57a6.85,6.85,0,0,0,6.83-6.83V8.43A6.85,6.85,0,0,0,55.57,1.6Z" fill="#959595"/><path d="M43.15,26a2.92,2.92,0,1,1-2.93-2.93A2.93,2.93,0,0,1,43.15,26Z" fill="#959595"/><path d="M26.7,26a2.93,2.93,0,1,1-2.92-2.93A2.92,2.92,0,0,1,26.7,26Z" fill="#959595"/><path d="M34.93,40.31A2.93,2.93,0,1,1,32,37.39,2.93,2.93,0,0,1,34.93,40.31Z" fill="#959595"/><path d="M32,52.71A20.71,20.71,0,1,1,52.71,32,20.73,20.73,0,0,1,32,52.71Zm0-40.22A19.51,19.51,0,1,0,51.51,32,19.53,19.53,0,0,0,32,12.49Z" fill="#959595"/></svg>