<svg id="ON" xmlns="http://www.w3.org/2000/svg" viewBox="0 0 64 64"><path d="M55.57,63.6H8.43a8,8,0,0,1-8-8V8.43a8,8,0,0,1,8-8H55.57a8,8,0,0,1,8,8V55.57A8,8,0,0,1,55.57,63.6ZM8.43,1.6A6.85,6.85,0,0,0,1.6,8.43V55.57A6.84,6.84,0,0,0,8.43,62.4H55.57a6.84,6.84,0,0,0,6.83-6.83V8.43A6.85,6.85,0,0,0,55.57,1.6Z" fill="#1bbc9d"/><path d="M32,11A20.72,20.72,0,0,0,11.3,31.73v.54a20.71,20.71,0,0,0,41.41,0v-.54A20.73,20.73,0,0,0,32,11ZM23.78,28.93A2.93,2.93,0,1,1,26.7,26,2.93,2.93,0,0,1,23.78,28.93ZM32,43.24a2.93,2.93,0,1,1,2.93-2.92A2.93,2.93,0,0,1,32,43.24Zm8.22-14.31A2.93,2.93,0,1,1,43.15,26,2.92,2.92,0,0,1,40.22,28.93Z" fill="#1bbc9d"/></svg>