<svg id="OFF" xmlns="http://www.w3.org/2000/svg" viewBox="0 0 64 64"><path d="M32,63.6A31.6,31.6,0,1,1,63.6,32,31.64,31.64,0,0,1,32,63.6Zm0-62A30.4,30.4,0,1,0,62.4,32,30.44,30.44,0,0,0,32,1.6Z" fill="#959595"/><path d="M32,57.85A25.85,25.85,0,1,1,57.85,32,25.88,25.88,0,0,1,32,57.85Zm0-50.5A24.65,24.65,0,1,0,56.65,32,24.68,24.68,0,0,0,32,7.35Z" fill="#959595"/><path d="M26.54,44.42a2.28,2.28,0,0,1-1.13-.3,2.23,2.23,0,0,1-1.11-1.94V21.82a2.24,2.24,0,0,1,3.35-1.94L45.51,30.05a2.25,2.25,0,0,1,0,3.9L27.65,44.12A2.23,2.23,0,0,1,26.54,44.42Zm0-23.64a1.07,1.07,0,0,0-.52.14,1,1,0,0,0-.52.9V42.18a1,1,0,0,0,.52.9,1,1,0,0,0,1,0L44.92,32.91a1.06,1.06,0,0,0,0-1.82L27.05,20.92A1,1,0,0,0,26.54,20.78Z" fill="#1bbc9d"/></svg>