<svg id="OFF" xmlns="http://www.w3.org/2000/svg" viewBox="0 0 64 64"><path d="M32,63.6A31.6,31.6,0,1,1,63.6,32,31.64,31.64,0,0,1,32,63.6Zm0-62A30.4,30.4,0,1,0,62.4,32,30.44,30.44,0,0,0,32,1.6Z" fill="#959595"/><path d="M32,57.85A25.85,25.85,0,1,1,57.85,32,25.88,25.88,0,0,1,32,57.85Zm0-50.5A24.65,24.65,0,1,0,56.65,32,24.68,24.68,0,0,0,32,7.35Z" fill="#959595"/><path d="M41.37,42.74a2,2,0,0,1-1-.27L25.05,33.75a2,2,0,0,1,0-3.5l15.32-8.72a2,2,0,0,1,3,1.74V40.73a2,2,0,0,1-1,1.74A2,2,0,0,1,41.37,42.74Zm0-20.28a.83.83,0,0,0-.4.11L25.65,31.3a.8.8,0,0,0,0,1.4L41,41.43a.77.77,0,0,0,.8,0,.8.8,0,0,0,.41-.7V23.27a.81.81,0,0,0-.4-.7A.87.87,0,0,0,41.37,22.46Z" fill="#1bbc9d"/><path d="M21.22,42a.6.6,0,0,1-.6-.6V22.57a.6.6,0,1,1,1.2,0V41.44A.6.6,0,0,1,21.22,42Z" fill="#1bbc9d"/></svg>