<svg id="OFF" xmlns="http://www.w3.org/2000/svg" viewBox="0 0 64 64"><path d="M4.38,45.12A2.78,2.78,0,0,1,1.6,42.35V25.72a2.79,2.79,0,0,1,2.78-2.78h29a13.7,13.7,0,0,0,0,22.18ZM29,34A12.56,12.56,0,1,1,41.51,46.58,12.56,12.56,0,0,1,29,34ZM62.4,42.35a2.77,2.77,0,0,1-2.77,2.77h-10a13.72,13.72,0,0,0,0-22.18h10a2.78,2.78,0,0,1,2.77,2.78ZM59.63,21.74h-12a13.58,13.58,0,0,0-12.25,0h-31a4,4,0,0,0-4,4V42.35a4,4,0,0,0,4,4h31a13.66,13.66,0,0,0,12.29,0h12a4,4,0,0,0,4-4V25.72A4,4,0,0,0,59.63,21.74Z" fill="#959595"/><path d="M41.76,24.09a.54.54,0,0,0-.49.23.62.62,0,0,0-.1.53,9.14,9.14,0,0,1-1.34,7.86,7.43,7.43,0,0,1-6.2,2.89,10,10,0,0,1-1.16-.08.59.59,0,0,0-.52.19.63.63,0,0,0-.14.54,10,10,0,1,0,10-12.16Zm-.25,18.7a8.7,8.7,0,0,1-8.31-6h.43a8.53,8.53,0,0,0,7.15-3.37,10.27,10.27,0,0,0,1.74-8.09,8.75,8.75,0,0,1-1,17.45Z" fill="#959595"/><path d="M58.55,26H56.83a.6.6,0,0,0,0,1.2h1.72a.6.6,0,0,0,0-1.2Z" fill="#959595"/><path d="M55.43,50.08a2.74,2.74,0,0,1-2.74-2.74V45.12h5.48v2.22A2.74,2.74,0,0,1,55.43,50.08Zm-1.54-3.76v1a1.54,1.54,0,0,0,3.08,0v-1Z" fill="#959595"/><path d="M8.57,50.08a2.74,2.74,0,0,1-2.74-2.74V45.12h5.48v2.22A2.74,2.74,0,0,1,8.57,50.08ZM7,46.32v1a1.54,1.54,0,0,0,3.08,0v-1Z" fill="#959595"/></svg>