<svg id="ON" xmlns="http://www.w3.org/2000/svg" viewBox="0 0 64 64"><path d="M35.48,46.32H4.38a4,4,0,0,1-4-4V25.72a4,4,0,0,1,4-4H35.5a.6.6,0,0,1,0,1.2H4.38A2.79,2.79,0,0,0,1.6,25.72V42.35a2.78,2.78,0,0,0,2.78,2.77h31.1a.6.6,0,1,1,0,1.2Z" fill="#959595"/><path d="M59.63,46.32H47.55a.6.6,0,0,1,0-1.2H59.63a2.77,2.77,0,0,0,2.77-2.77V25.72a2.78,2.78,0,0,0-2.77-2.78H47.53a.6.6,0,0,1,0-1.2h12.1a4,4,0,0,1,4,4V42.35A4,4,0,0,1,59.63,46.32Z" fill="#959595"/><path d="M41.51,47.79A13.76,13.76,0,1,1,55.26,34,13.77,13.77,0,0,1,41.51,47.79Zm0-26.31A12.55,12.55,0,1,0,54.07,34,12.56,12.56,0,0,0,41.51,21.48Z" fill="#1bbc9d"/><path d="M41.75,24.69c1.43,5.08-1.27,11.51-8.11,11.51a9.93,9.93,0,0,1-1.25-.09,9.36,9.36,0,1,0,9.36-11.42Z" fill="#1bbc9d"/><path d="M58.55,27.19H56.83a.6.6,0,0,1,0-1.2h1.72a.6.6,0,0,1,0,1.2Z" fill="#959595"/><path d="M33.44,20.63a.6.6,0,0,1-.46-.21l-1.5-1.74a.6.6,0,0,1,.07-.84.59.59,0,0,1,.84.06l1.5,1.74a.6.6,0,0,1-.06.85A.62.62,0,0,1,33.44,20.63Z" fill="#1bbc9d"/><path d="M38.65,18a.61.61,0,0,1-.58-.46l-.53-2.24A.6.6,0,0,1,38.71,15l.53,2.24a.59.59,0,0,1-.45.72Z" fill="#1bbc9d"/><path d="M44.37,18l-.14,0a.59.59,0,0,1-.44-.72L44.32,15a.6.6,0,0,1,.72-.45.61.61,0,0,1,.45.72L45,17.51A.61.61,0,0,1,44.37,18Z" fill="#1bbc9d"/><path d="M49.59,20.63a.62.62,0,0,1-.39-.14.61.61,0,0,1-.07-.85l1.5-1.74a.61.61,0,0,1,.85-.07.6.6,0,0,1,.06.85L50,20.42A.57.57,0,0,1,49.59,20.63Z" fill="#1bbc9d"/><path d="M55.43,50.08a2.74,2.74,0,0,1-2.74-2.74V45.12h5.48v2.22A2.74,2.74,0,0,1,55.43,50.08Zm-1.54-3.76v1a1.54,1.54,0,0,0,3.08,0v-1Z" fill="#959595"/><path d="M8.57,50.08a2.74,2.74,0,0,1-2.74-2.74V45.12h5.48v2.22A2.74,2.74,0,0,1,8.57,50.08ZM7,46.32v1a1.54,1.54,0,0,0,3.08,0v-1Z" fill="#959595"/></svg>