<svg id="OFF" xmlns="http://www.w3.org/2000/svg" viewBox="0 0 64 64"><path d="M32,45.11A7.11,7.11,0,1,1,39.11,38,7.12,7.12,0,0,1,32,45.11Zm0-13A5.91,5.91,0,1,0,37.91,38,5.92,5.92,0,0,0,32,32.09Z" fill="#1bbc9d"/><path d="M32,4.36A3.35,3.35,0,0,1,28.64,1a.6.6,0,1,1,1.19,0A2.16,2.16,0,0,0,32,3.16,2.17,2.17,0,0,0,34.17,1a.6.6,0,1,1,1.19,0A3.36,3.36,0,0,1,32,4.36Z" fill="#1bbc9d"/><path d="M42,63.6H22a4.16,4.16,0,0,1-4-4.26V4.66A4.16,4.16,0,0,1,22,.4H42a4.16,4.16,0,0,1,4,4.26V59.34A4.16,4.16,0,0,1,42,63.6ZM22,1.6a3,3,0,0,0-2.84,3.06V59.34A3,3,0,0,0,22,62.4H42a3,3,0,0,0,2.84-3.06V4.66A3,3,0,0,0,42,1.6Z" fill="#959595"/><path d="M25.13,50.54h-3a.6.6,0,1,1,0-1.2h3a.6.6,0,0,1,0,1.2Z" fill="#959595"/><path d="M33.49,50.54h-3a.6.6,0,0,1,0-1.2h3a.6.6,0,0,1,0,1.2Z" fill="#959595"/><path d="M41.85,50.54h-3a.6.6,0,0,1,0-1.2h3a.6.6,0,0,1,0,1.2Z" fill="#959595"/><path d="M25.13,56.88h-3a.6.6,0,1,1,0-1.2h3a.6.6,0,0,1,0,1.2Z" fill="#959595"/><path d="M33.49,56.88h-3a.6.6,0,1,1,0-1.2h3a.6.6,0,1,1,0,1.2Z" fill="#959595"/><path d="M41.85,56.88h-3a.6.6,0,0,1,0-1.2h3a.6.6,0,1,1,0,1.2Z" fill="#959595"/><path d="M25.13,20.5h-3a.6.6,0,0,1,0-1.2h3a.6.6,0,0,1,0,1.2Z" fill="#959595"/><path d="M33.49,20.5h-3a.6.6,0,0,1,0-1.2h3a.6.6,0,0,1,0,1.2Z" fill="#959595"/><path d="M41.85,20.5h-3a.6.6,0,0,1,0-1.2h3a.6.6,0,0,1,0,1.2Z" fill="#959595"/><path d="M25.13,26.65h-3a.6.6,0,0,1,0-1.2h3a.6.6,0,0,1,0,1.2Z" fill="#959595"/><path d="M33.49,26.65h-3a.6.6,0,1,1,0-1.2h3a.6.6,0,0,1,0,1.2Z" fill="#959595"/><path d="M41.85,26.65h-3a.6.6,0,0,1,0-1.2h3a.6.6,0,1,1,0,1.2Z" fill="#959595"/><path d="M25.13,8.2h-3a.6.6,0,0,1,0-1.2h3a.6.6,0,0,1,0,1.2Z" fill="#959595"/><path d="M33.49,8.2h-3a.6.6,0,0,1,0-1.2h3a.6.6,0,1,1,0,1.2Z" fill="#959595"/><path d="M41.85,8.2h-3a.6.6,0,0,1,0-1.2h3a.6.6,0,1,1,0,1.2Z" fill="#959595"/><path d="M25.13,14.35h-3a.6.6,0,1,1,0-1.2h3a.6.6,0,1,1,0,1.2Z" fill="#959595"/><path d="M33.49,14.35h-3a.6.6,0,0,1,0-1.2h3a.6.6,0,1,1,0,1.2Z" fill="#959595"/><path d="M41.85,14.35h-3a.6.6,0,0,1,0-1.2h3a.6.6,0,1,1,0,1.2Z" fill="#959595"/></svg>