<svg id="ON" xmlns="http://www.w3.org/2000/svg" viewBox="0 0 64 64">
    <path
        d="M35.19,40.07a.61.61,0,0,1-.55-.36.6.6,0,0,1,.31-.79,7.53,7.53,0,0,0,0-13.85.6.6,0,0,1,.48-1.1,8.73,8.73,0,0,1,0,16.05A.52.52,0,0,1,35.19,40.07Z"
        fill="#959595" />
    <path
        d="M28.81,40.07a.52.52,0,0,1-.24,0,8.73,8.73,0,0,1,0-16.05.6.6,0,0,1,.48,1.1,7.53,7.53,0,0,0,0,13.85.6.6,0,0,1,.31.79A.61.61,0,0,1,28.81,40.07Z"
        fill="#959595" />
    <path
        d="M9.56,35.61A3.62,3.62,0,1,1,13.18,32,3.61,3.61,0,0,1,9.56,35.61Zm0-6A2.42,2.42,0,1,0,12,32,2.42,2.42,0,0,0,9.56,29.58Z"
        fill="#1bbc9d" />
    <path
        d="M54.44,35.61A3.62,3.62,0,1,1,58.05,32,3.62,3.62,0,0,1,54.44,35.61Zm0-6A2.42,2.42,0,1,0,56.85,32,2.42,2.42,0,0,0,54.44,29.58Z"
        fill="#1bbc9d" />
    <path
        d="M40,34.11a.58.58,0,0,1-.42-.18l-4.78-4.78a.59.59,0,1,1,.84-.84l4.78,4.78a.6.6,0,0,1-.42,1Z"
        fill="#959595" />
    <path
        d="M28.81,29.4a.61.61,0,0,1-.42-.17l-2.55-2.55a.6.6,0,0,1,0-.85.59.59,0,0,1,.85,0l2.55,2.55a.59.59,0,0,1,0,.84A.61.61,0,0,1,28.81,29.4Z"
        fill="#959595" />
    <path
        d="M37.74,38.34a.6.6,0,0,1-.5-.26L34.77,35.6a.59.59,0,1,1,.84-.84l2.55,2.55a.56.56,0,0,1,.18.42A.61.61,0,0,1,37.74,38.34Z"
        fill="#959595" />
    <path
        d="M28.81,35.86a.61.61,0,0,1-.42-.17l-4.78-4.77a.59.59,0,0,1,0-.85.58.58,0,0,1,.84,0l4.78,4.77a.59.59,0,0,1,0,.84A.61.61,0,0,1,28.81,35.86Z"
        fill="#959595" />
    <path
        d="M35.19,52.19a.59.59,0,0,1-.6-.6V12.41A.62.62,0,0,1,34.8,12a.62.62,0,0,1,.49-.13A20.55,20.55,0,0,1,48.55,20H58.7a4.92,4.92,0,0,1,4.9,4.92V39.09A4.92,4.92,0,0,1,58.7,44H48.55a20.55,20.55,0,0,1-13.26,8.17Zm.6-39.06V50.87a19.38,19.38,0,0,0,12-7.81.61.61,0,0,1,.49-.25H58.7a3.72,3.72,0,0,0,3.7-3.72V24.9a3.72,3.72,0,0,0-3.7-3.72H48.24a.58.58,0,0,1-.49-.25A19.32,19.32,0,0,0,35.79,13.13Z"
        fill="#959595" />
    <path
        d="M28.81,52.19h-.1A20.53,20.53,0,0,1,15.45,44H5.3A4.92,4.92,0,0,1,.4,39.09V24.9A4.92,4.92,0,0,1,5.3,20H15.45a20.47,20.47,0,0,1,13.27-8.16.59.59,0,0,1,.48.13.62.62,0,0,1,.21.46V51.59a.59.59,0,0,1-.6.6ZM5.3,21.18A3.72,3.72,0,0,0,1.6,24.9V39.09a3.72,3.72,0,0,0,3.7,3.72H15.76a.59.59,0,0,1,.49.26,19.36,19.36,0,0,0,12,7.8V13.13a19.29,19.29,0,0,0-12,7.8.58.58,0,0,1-.49.25Z"
        fill="#959595" />
</svg>