<svg id="ON" xmlns="http://www.w3.org/2000/svg" viewBox="0 0 64 64"><path d="M60.38,53H3.62A3.22,3.22,0,0,1,.4,49.74V9.33A3.22,3.22,0,0,1,3.62,6.11H60.38A3.22,3.22,0,0,1,63.6,9.33V49.74A3.22,3.22,0,0,1,60.38,53ZM3.62,7.31a2,2,0,0,0-2,2V49.74a2,2,0,0,0,2,2H60.38a2,2,0,0,0,2-2V9.33a2,2,0,0,0-2-2Z" fill="#959595"/><path d="M6.05,33.51a10.4,10.4,0,0,0-1.37.1v3.22a7.76,7.76,0,0,1,1.37-.14,7.41,7.41,0,0,1,7.4,7.4,7,7,0,0,1-.15,1.37h3.23a10.4,10.4,0,0,0,.1-1.37A10.6,10.6,0,0,0,6.05,33.51ZM58.72,10.39H5.28a.6.6,0,0,0-.6.6V28c.45,0,.91-.07,1.37-.07A16.2,16.2,0,0,1,22.22,44.09c0,.45,0,.91-.09,1.37H58.72a.6.6,0,0,0,.6-.6V11A.6.6,0,0,0,58.72,10.39ZM39.17,29.24l-10.7,6.09a1.53,1.53,0,0,1-.75.2,1.5,1.5,0,0,1-.76-.21,1.49,1.49,0,0,1-.75-1.3V21.83a1.51,1.51,0,0,1,2.26-1.31l10.7,6.09a1.48,1.48,0,0,1,.76,1.31A1.5,1.5,0,0,1,39.17,29.24ZM6.05,29.12c-.46,0-.91,0-1.37.07v3.2a12.44,12.44,0,0,1,1.37-.08A11.79,11.79,0,0,1,17.83,44.09a12.44,12.44,0,0,1-.09,1.37h3.2A12.73,12.73,0,0,0,21,44.09,15,15,0,0,0,6.05,29.12Zm0,8.77a6.19,6.19,0,0,0-1.37.16v6.81a.6.6,0,0,0,.6.6h6.8a5.71,5.71,0,0,0,.17-1.37A6.21,6.21,0,0,0,6.05,37.89Z" fill="#1bbc9d"/><path d="M58.29,49.18h-.58a.6.6,0,1,1,0-1.2h.58a.6.6,0,1,1,0,1.2Z" fill="#959595"/><path d="M32,58.13a.6.6,0,0,1-.6-.6V52.36a.6.6,0,0,1,1.2,0v5.17A.6.6,0,0,1,32,58.13Z" fill="#959595"/><path d="M42,58.13H22a.6.6,0,1,1,0-1.2H42a.6.6,0,1,1,0,1.2Z" fill="#959595"/></svg>