<svg id="OFF" xmlns="http://www.w3.org/2000/svg" viewBox="0 0 64 64"><path d="M31.63,63.6c-.49,0-1,0-1.49-.08a12.86,12.86,0,0,1-6-23.25V7.87a7.47,7.47,0,0,1,14.94,0v32.4a12.87,12.87,0,0,1,1.09,20.06A12.74,12.74,0,0,1,31.63,63.6Zm0-62a6.28,6.28,0,0,0-6.28,6.27V40.58a.6.6,0,0,1-.26.5,11.66,11.66,0,1,0,13.07,0,.57.57,0,0,1-.26-.49V7.87A6.28,6.28,0,0,0,31.62,1.6Z" fill="#959595"/><path d="M31.59,59.23c-.32,0-.64,0-1,0a8.49,8.49,0,0,1-2.11-16.34V16a3.11,3.11,0,1,1,6.21,0V42.84a8.49,8.49,0,0,1-3.13,16.39Zm0-45.14A1.92,1.92,0,0,0,29.71,16V43.26a.61.61,0,0,1-.41.57,7.26,7.26,0,0,0-4.93,7.81,7.3,7.3,0,1,0,9.56-7.81.6.6,0,0,1-.41-.57V16A1.91,1.91,0,0,0,31.62,14.09Z" fill="#1bbc9d"/><path d="M44.64,9.17H41.49a.6.6,0,0,1,0-1.2h3.15a.6.6,0,1,1,0,1.2Z" fill="#959595"/><path d="M43.62,13.6H41.49a.6.6,0,0,1,0-1.2h2.13a.6.6,0,1,1,0,1.2Z" fill="#959595"/><path d="M44.64,18H41.49a.6.6,0,1,1,0-1.2h3.15a.6.6,0,0,1,0,1.2Z" fill="#959595"/><path d="M43.62,22.45H41.49a.6.6,0,1,1,0-1.2h2.13a.6.6,0,0,1,0,1.2Z" fill="#959595"/><path d="M44.64,26.87H41.49a.6.6,0,0,1,0-1.2h3.15a.6.6,0,1,1,0,1.2Z" fill="#959595"/><path d="M44.64,35.72H41.49a.6.6,0,1,1,0-1.2h3.15a.6.6,0,0,1,0,1.2Z" fill="#959595"/><path d="M43.62,31.3H41.49a.6.6,0,0,1,0-1.2h2.13a.6.6,0,1,1,0,1.2Z" fill="#959595"/></svg>