<svg id="OFF" xmlns="http://www.w3.org/2000/svg" viewBox="0 0 64 64"><path d="M32,37.93c-17.43,0-31.6-7-31.6-15.59S14.57,6.74,32,6.74s31.59,7,31.59,15.6S49.42,37.93,32,37.93Zm0-30c-16.76,0-30.4,6.46-30.4,14.4S15.24,36.74,32,36.74s30.39-6.46,30.39-14.4S48.76,7.94,32,7.94Z" fill="#959595"/><path d="M40,18.16A.6.6,0,0,1,39.88,17a42,42,0,0,0,15.56-4.79.6.6,0,0,1,.6,1,43.25,43.25,0,0,1-16,4.94Z" fill="#959595"/><path d="M24,18.17H24A43.63,43.63,0,0,1,8,13.23a.6.6,0,0,1,.6-1A42.45,42.45,0,0,0,24.11,17,.6.6,0,0,1,24,18.17Z" fill="#959595"/><path d="M32,22.44c-4.83,0-8.6-2-8.6-4.47S27.17,13.5,32,13.5s8.59,2,8.59,4.47S36.82,22.44,32,22.44Zm0-7.74c-4.36,0-7.4,1.73-7.4,3.27s3,3.27,7.4,3.27,7.39-1.72,7.39-3.27S36.36,14.7,32,14.7Z" fill="#1bbc9d"/><path d="M32,50.4c-11.58,0-22.21-3.11-27.74-8.11C1.7,40,.41,37.44.41,34.8V22.33a.6.6,0,0,1,1.2,0c0,7.94,13.63,14.4,30.38,14.4S62.4,30.27,62.4,22.33a.6.6,0,0,1,1.2,0V34.8c0,2.66-1.31,5.18-3.88,7.49C54.23,47.29,43.6,50.4,32,50.4ZM1.61,26.68V34.8c0,2.29,1.16,4.51,3.45,6.6C10.38,46.21,20.7,49.2,32,49.2s21.64-3,26.93-7.8c2.31-2.08,3.48-4.3,3.48-6.6V26.59c-3.77,6.54-16,11.34-30.41,11.34C17.35,37.93,5.34,33.25,1.61,26.68Z" fill="#959595"/><path d="M32,53.6c-10,0-19.58-2.38-25.5-6.36a6,6,0,0,1-2.6-4.56l-.06-1A.6.6,0,0,1,4.39,41,.62.62,0,0,1,5,41.6l.06,1a4.76,4.76,0,0,0,2.07,3.64c5.73,3.86,15,6.16,24.83,6.16s19.13-2.3,24.84-6.16a4.69,4.69,0,0,0,2.06-3.62l.07-1a.63.63,0,0,1,.65-.56.6.6,0,0,1,.55.64l-.08,1.05a5.89,5.89,0,0,1-2.58,4.53C51.6,51.22,42.07,53.6,32,53.6Z" fill="#959595"/><path d="M4.43,54.51a.6.6,0,0,1-.55-.36.6.6,0,0,1,.3-.79,8.51,8.51,0,0,0,3.54-3.49.6.6,0,0,1,1.07.53,9.49,9.49,0,0,1-4.12,4.06A.69.69,0,0,1,4.43,54.51Z" fill="#1bbc9d"/><path d="M8.61,55a.59.59,0,0,1-.5-.26.61.61,0,0,1,.16-.84,7.34,7.34,0,0,0,2.33-2.75.59.59,0,0,1,.81-.26.6.6,0,0,1,.26.8,8.5,8.5,0,0,1-2.73,3.21A.58.58,0,0,1,8.61,55Z" fill="#1bbc9d"/><path d="M10.51,57.26a.62.62,0,0,1-.55-.34.6.6,0,0,1,.29-.8,8.45,8.45,0,0,0,3.42-3.6.6.6,0,0,1,.8-.29.59.59,0,0,1,.29.79,9.45,9.45,0,0,1-4,4.18A.65.65,0,0,1,10.51,57.26Z" fill="#1bbc9d"/><path d="M59.54,54.51a.69.69,0,0,1-.24,0,9.49,9.49,0,0,1-4.12-4.06.6.6,0,0,1,1.07-.53,8.51,8.51,0,0,0,3.54,3.49.6.6,0,0,1,.3.79A.6.6,0,0,1,59.54,54.51Z" fill="#1bbc9d"/><path d="M55.36,55a.58.58,0,0,1-.33-.1,8.5,8.5,0,0,1-2.73-3.21.6.6,0,0,1,.26-.8.59.59,0,0,1,.81.26,7.34,7.34,0,0,0,2.33,2.75.62.62,0,0,1,.16.84A.59.59,0,0,1,55.36,55Z" fill="#1bbc9d"/><path d="M53.46,57.26a.65.65,0,0,1-.26-.06,9.52,9.52,0,0,1-4-4.18.59.59,0,0,1,.29-.79.6.6,0,0,1,.8.29,8.45,8.45,0,0,0,3.42,3.6.6.6,0,0,1-.26,1.14Z" fill="#1bbc9d"/><path d="M38.78,29.23a.59.59,0,0,1-.42-.18,7.93,7.93,0,0,0-11.19,0,.59.59,0,1,1-.84-.84,9.1,9.1,0,0,1,12.88,0,.6.6,0,0,1-.43,1Z" fill="#959595"/><path d="M36.73,31.29a.6.6,0,0,1-.43-.18,5,5,0,0,0-7.07,0,.59.59,0,0,1-.85,0,.61.61,0,0,1,0-.85,6.22,6.22,0,0,1,8.77,0,.61.61,0,0,1,0,.85A.59.59,0,0,1,36.73,31.29Z" fill="#959595"/><path d="M34.67,33.34a.57.57,0,0,1-.42-.17,2.09,2.09,0,0,0-3,0,.61.61,0,0,1-.85,0,.59.59,0,0,1,0-.85,3.3,3.3,0,0,1,4.65,0,.59.59,0,0,1,0,.85A.57.57,0,0,1,34.67,33.34Z" fill="#959595"/></svg>